  0
SECTION
  2
HEADER
  9
$ANGBASE
  50
0.0
  9
$ANGDIR
  70
1
  9
$MEASUREMENT
  70
1
  0
ENDSEC
  0
SECTION
  2
TABLES
  0
TABLE
  2
LTYPE
  70
4
  0
LTYPE
  5
40F
  2
CONTINUOUS
  70
0
  3
Solid line
  72
65
  73
0
  40
0.0
  0
LTYPE
  5
410
  2
DASHDOT
 70
0
  3
Dash Dot ____ _ ____ _
 72
65
 73
4
 40
2.0
 49
1.25
 49
-0.25
 49
0.25
 49
-0.25
  0
LTYPE
  5
411
  2
DASHED
 70
0
  3
Dashed __ __ __ __ __
 72
65
 73
2
 40
0.75
 49
0.5
 49
-0.25
  0
LTYPE
  5
43B
  2
DOTTED
 70
0
  3
Dotted .  .  .  .
 72
65
 73
2
 40
0.2
 49
0.0
 49
-0.2
  0
ENDTAB
  0
TABLE
  2
STYLE
  70
4
  0
STYLE
  2
KICAD
  70
0
  40
0
  41
1
  42
1
  50
0
  71
0
  3
isocp.shx
  0
STYLE
  2
KICADB
  70
0
  40
0
  41
1
  42
1
  50
0
  71
0
  3
isocp.shx
  0
STYLE
  2
KICADI
  70
0
  40
0
  41
1
  42
1
  50
15
  71
0
  3
isocp.shx
  0
STYLE
  2
KICADBI
  70
0
  40
0
  41
1
  42
1
  50
15
  71
0
  3
isocp.shx
  0
ENDTAB
  0
TABLE
  2
LAYER
  70
1
  0
LAYER
  2
BLACK
  70
0
  62
7
  6
CONTINUOUS
  0
ENDTAB
  0
ENDSEC
  0
SECTION
  2
ENTITIES
0
LINE
8
BLACK
6
CONTINUOUS
10
91.5095669999999899
20
-19.9768790000000003
11
91.5230969999999928
21
-19.9904089999999997
0
LINE
8
BLACK
6
CONTINUOUS
10
91.5230969999999928
20
-19.9904089999999997
11
91.5249999999999915
21
-19.9999760000000002
0
LINE
8
BLACK
6
CONTINUOUS
10
91.5249999999999915
20
-19.9999760000000002
11
91.5249999999999915
21
-104.8028070000000014
0
LINE
8
BLACK
6
CONTINUOUS
10
91.5249999999999915
20
-104.8028070000000014
11
93.0231619999999992
21
-108.4905909999999949
0
LINE
8
BLACK
6
CONTINUOUS
10
93.0231619999999992
20
-108.4905909999999949
11
93.0240739999999988
21
-108.4953489999999903
0
LINE
8
BLACK
6
CONTINUOUS
10
93.0240739999999988
20
-108.4953489999999903
11
93.0249999999999915
21
-108.5
0
LINE
8
BLACK
6
CONTINUOUS
10
93.0249999999999915
20
-108.5
11
93.0249999999999915
21
-127.5
0
LINE
8
BLACK
6
CONTINUOUS
10
93.0249999999999915
20
-127.5
11
93.0230969999999928
21
-127.5095669999999899
0
LINE
8
BLACK
6
CONTINUOUS
10
93.0230969999999928
20
-127.5095669999999899
11
93.0176779999999894
21
-127.5176779999999894
0
LINE
8
BLACK
6
CONTINUOUS
10
93.0176779999999894
20
-127.5176779999999894
11
83.5176779999999894
21
-137.0176779999999894
0
LINE
8
BLACK
6
CONTINUOUS
10
83.5176779999999894
20
-137.0176779999999894
11
83.5095669999999899
21
-137.023097000000007
0
LINE
8
BLACK
6
CONTINUOUS
10
83.5095669999999899
20
-137.023097000000007
11
83.5
21
-137.0250000000000057
0
LINE
8
BLACK
6
CONTINUOUS
10
83.5
20
-137.0250000000000057
11
29.5
21
-137.0250000000000057
0
LINE
8
BLACK
6
CONTINUOUS
10
29.5
20
-137.0250000000000057
11
29.4904329999999995
21
-137.023097000000007
0
LINE
8
BLACK
6
CONTINUOUS
10
29.4904329999999995
20
-137.023097000000007
11
29.4823219999999999
21
-137.0176779999999894
0
LINE
8
BLACK
6
CONTINUOUS
10
29.4823219999999999
20
-137.0176779999999894
11
19.9823219999999999
21
-127.5176779999999894
0
LINE
8
BLACK
6
CONTINUOUS
10
19.9823219999999999
20
-127.5176779999999894
11
19.9769030000000001
21
-127.5095669999999899
0
LINE
8
BLACK
6
CONTINUOUS
10
19.9769030000000001
20
-127.5095669999999899
11
19.9749999999999979
21
-127.5
0
LINE
8
BLACK
6
CONTINUOUS
10
19.9749999999999979
20
-127.5
11
19.9749999999999979
21
-108.5
0
LINE
8
BLACK
6
CONTINUOUS
10
19.9749999999999979
20
-108.5
11
19.9759360000000008
21
-108.4952929999999895
0
LINE
8
BLACK
6
CONTINUOUS
10
19.9759360000000008
20
-108.4952929999999895
11
19.9768380000000008
21
-108.4905909999999949
0
LINE
8
BLACK
6
CONTINUOUS
10
19.9768380000000008
20
-108.4905909999999949
11
21.4749999999999979
21
-104.8028079999999989
0
LINE
8
BLACK
6
CONTINUOUS
10
21.4749999999999979
20
-104.8028079999999989
11
21.4749999999999979
21
-20.000316999999999
0
LINE
8
BLACK
6
CONTINUOUS
10
21.4749999999999979
20
-20.000316999999999
11
21.4769030000000001
21
-19.9907499999999985
0
LINE
8
BLACK
6
CONTINUOUS
10
21.4769030000000001
20
-19.9907499999999985
11
21.4904329999999995
21
-19.9772199999999991
0
LINE
8
BLACK
6
CONTINUOUS
10
21.4904329999999995
20
-19.9772199999999991
11
21.5
21
-19.9753170000000004
0
LINE
8
BLACK
6
CONTINUOUS
10
21.5
20
-19.9753170000000004
11
91.5
21
-19.9749759999999981
0
LINE
8
BLACK
6
CONTINUOUS
10
91.5
20
-19.9749759999999981
11
91.5095669999999899
21
-19.9768790000000003
0
LINE
8
BLACK
6
CONTINUOUS
10
21.5249999999999986
20
-20.0253160000000001
11
21.5249999999999986
21
-104.8076919999999888
0
LINE
8
BLACK
6
CONTINUOUS
10
21.5249999999999986
20
-104.8076919999999888
11
21.5240739999999988
21
-104.812342000000001
0
LINE
8
BLACK
6
CONTINUOUS
10
21.5240739999999988
20
-104.812342000000001
11
21.5231619999999992
21
-104.8171009999999939
0
LINE
8
BLACK
6
CONTINUOUS
10
21.5231619999999992
20
-104.8171009999999939
11
20.0249999999999986
21
-108.5048839999999899
0
LINE
8
BLACK
6
CONTINUOUS
10
20.0249999999999986
20
-108.5048839999999899
11
20.0249999999999986
21
-127.4896439999999984
0
LINE
8
BLACK
6
CONTINUOUS
10
20.0249999999999986
20
-127.4896439999999984
11
29.510355999999998
21
-136.9749999999999943
0
LINE
8
BLACK
6
CONTINUOUS
10
29.510355999999998
20
-136.9749999999999943
11
83.4896439999999984
21
-136.9749999999999943
0
LINE
8
BLACK
6
CONTINUOUS
10
83.4896439999999984
20
-136.9749999999999943
11
92.9749999999999943
21
-127.4896439999999984
0
LINE
8
BLACK
6
CONTINUOUS
10
92.9749999999999943
20
-127.4896439999999984
11
92.9749999999999943
21
-108.5048829999999924
0
LINE
8
BLACK
6
CONTINUOUS
10
92.9749999999999943
20
-108.5048829999999924
11
91.4768380000000008
21
-104.8171009999999939
0
LINE
8
BLACK
6
CONTINUOUS
10
91.4768380000000008
20
-104.8171009999999939
11
91.4759359999999901
21
-104.8123980000000017
0
LINE
8
BLACK
6
CONTINUOUS
10
91.4759359999999901
20
-104.8123980000000017
11
91.4749999999999943
21
-104.8076919999999888
0
LINE
8
BLACK
6
CONTINUOUS
10
91.4749999999999943
20
-104.8076919999999888
11
91.4749999999999943
21
-20.0249759999999988
0
LINE
8
BLACK
6
CONTINUOUS
10
91.4749999999999943
20
-20.0249759999999988
11
21.5249999999999986
21
-20.0253160000000001
  0
ENDSEC
  0
EOF
